<svg id="svg8" width="210mm" height="297mm" version="1.1" viewBox="0 0 210 297" xmlns="http://www.w3.org/2000/svg" xmlns:xlink="http://www.w3.org/1999/xlink">
 <defs id="defs2">
  <linearGradient id="linearGradient4900" x1="358" x2="375" y1="460.52" y2="1057.5" gradientTransform="matrix(.26458 0 0 .26458 5.0193 29.223)" gradientUnits="userSpaceOnUse">
   <stop id="stop4894" style="stop-color:#fff" offset="0"/>
   <stop id="stop4896" style="stop-color:#ccc" offset="1"/>
  </linearGradient>
  <linearGradient id="linearGradient5179" x1="-90.488" x2="-91.546" y1="56.229" y2="441.99" gradientTransform="matrix(1.3957 0 0 1.2289 225.94 -67.505)" gradientUnits="userSpaceOnUse">
   <stop id="stop5173" style="stop-color:#dae846" offset="0"/>
   <stop id="stop5175" style="stop-opacity:0" offset="1"/>
  </linearGradient>
 </defs>
 <g id="layer1">
  <path id="path4883" d="m89.675 246.31c-0.11036 0-0.19947 0.11417-0.19947 0.25631l-0.26975 0.81907h5.2162l-0.26975-0.81907c0-0.14214-0.0891-0.25631-0.19948-0.25631zm-0.55604 1.3394-0.41548 1.2614h6.2208l-0.41547-1.2614zm-0.50281 1.527-0.41548 1.2619h7.2264l-0.41547-1.2619zm-0.50281 1.5276-0.41548 1.2614h8.2321l-0.41548-1.2614zm-0.5023 1.5255-0.85731 2.6024c-0.04309 0.13088 2.8109 0.0816 2.9213 0.0816h4.2778c0.11036 0 2.9644 0.0493 2.9213-0.0816l-0.85731-2.6024z" style="fill:#969090;opacity:.937;paint-order:markers fill stroke"/>
  <path id="path4885" d="m115.68 246.31c-0.11035 0-0.19947 0.11417-0.19947 0.25631l-0.26975 0.81907h5.2162l-0.26975-0.81907c0-0.14214-0.0891-0.25631-0.19948-0.25631zm-0.55604 1.3394-0.41548 1.2614h6.2208l-0.41547-1.2614zm-0.50281 1.527-0.41548 1.2619h7.2264l-0.41547-1.2619zm-0.50281 1.5276-0.41548 1.2614h8.2321l-0.41548-1.2614zm-0.5023 1.5255-0.85731 2.6024c-0.0431 0.13088 2.8109 0.0816 2.9213 0.0816h4.2778c0.11036 0 2.9644 0.0493 2.9213-0.0816l-0.85731-2.6024z" style="fill:#969090;opacity:.937;paint-order:markers fill stroke"/>
  <path id="rect4832" d="m103.15 246.12c-0.11036 0-0.19948 0.11417-0.19948 0.25631l-0.26975 0.81907h5.2162l-0.26975-0.81907c0-0.14214-0.0891-0.25631-0.19948-0.25631zm-0.55604 1.3394-0.41548 1.2614h6.2208l-0.41547-1.2614zm-0.50282 1.527-0.41547 1.2619h7.2264l-0.41547-1.2619zm-0.50281 1.5276-0.41547 1.2614h8.232l-0.41548-1.2614zm-0.50229 1.5255-0.85731 2.6024c-0.0431 0.13088 2.8109 0.0816 2.9213 0.0816h4.2778c0.11036 0 2.9644 0.0493 2.9213-0.0816l-0.85731-2.6024z" style="fill:#969090;opacity:.937;paint-order:markers fill stroke"/>
  <path id="rect4752" d="m105.36 13.672c-17.55 0-31.678 38.304-31.678 57.577v135.91c0 11.412 5.3945 14.574 13.438 15.255-0.1488 0.35846-0.32242 0.85906-0.62739 1.5813l-1.6746 3.9659c-0.22177 0.52518-0.25889 0.87646-0.22783 1.051h-0.05317c0.01884 7e-3 0.03783 0.0128 0.05666 0.0197 0.02582 0.11502 0.08318 0.1416 0.13649 0.0635 0.0028-4e-3 0.0069-9e-3 0.0098-0.0127 3.0003 1.0561 6.3196 1.1483 10.064-0.0419 0.01437 0.0181 0.0328 0.0366 0.04508 0.0546 0.13049 0.19147 0.30036-0.21476-0.08792-1.1342l-1.6746-3.9659c-0.26389-0.6249-0.42798-1.0806-0.56436-1.4263 3.1516-0.0374 6.5613-0.2246 10.101-0.32576-0.16715 0.3629-0.34528 0.90872-0.70142 1.7521l-1.6746 3.9659c-0.38826 0.91943-0.21834 1.3257-0.0879 1.1342 0.01-0.0143 0.0249-0.0289 0.0359-0.0431 2.9989 1.0767 6.3176 1.1876 10.061 0.0165 7e-3 9e-3 0.0164 0.0178 0.0226 0.0267 0.0548 0.0806 0.11444 0.0492 0.13873-0.0756 8e-3 -2e-3 0.0165-5e-3 0.0249-7e-3h-0.0238c0.0312-0.17454-5e-3 -0.5258-0.22783-1.051l-1.6746-3.9659c-0.37616-0.89083-0.55394-1.4483-0.72972-1.8099 4.0392 0.0412 7.8147 0.27585 11.222 0.36006-0.25647 0.32524-0.40897 0.92558-0.90493 2.1001l-1.6746 3.9659c-0.37541 0.88899-0.22921 1.2926-0.10119 1.1456 3.0302 1.1064 6.3874 1.2259 10.18 0.0305 0.019 7e-3 0.0367 6.5e-4 0.0526-0.0165 0.0304-0.01 0.0603-0.0175 0.0907-0.0273h-0.0757c0.0651-0.12202 0.0624-0.50404-0.20296-1.1323l-1.6746-3.9659c-0.51269-1.2141-0.65852-1.8141-0.93154-2.1312 8.1638-0.41392 13.272-3.2173 13.272-15.355v-135.91c0-19.274-14.128-57.577-31.678-57.577zm-15.571 213.67c1.9018 0.0728 4.3394 0.90955 4.9902 1.6752h-9.9804c0.65075-0.76571 3.0884-1.6026 4.9902-1.6752zm15.429 0c1.9018 0.0728 4.3394 0.90955 4.9902 1.6752h-9.9804c0.65076-0.76571 3.0884-1.6026 4.9902-1.6752zm16.182 0.65028c1.9691 0.0753 4.5186 0.97003 5.0578 1.7565h-10.116c0.53929-0.78651 3.0887-1.6813 5.0578-1.7565z" style="fill:url(#linearGradient5179);opacity:.937;paint-order:stroke markers fill"/>
  <path id="rect4677" d="m71.414 133.59c-5.1943 0-9.4725 6.4332-10.247 14.892l-0.12609 2.7611s0.71088 89.609-0.79375 93.882c-2.4581 6.9793-4.7424 22.836-4.7424 22.836-0.0633 0.30485 12.8-1.4075 12.8-1.3229h3.3838c0-44.349 8.4779-134.12 0-133.05zm0.55655 0c-9.5104 32.574-0.12561 88.543 0 133.05h3.3838c0-0.0846 12.863 1.6278 12.8 1.3229 0 0-2.2843-15.856-4.7424-22.836-1.5046-4.2721-0.79375-93.882-0.79375-93.882l-0.12609-2.7611c-0.77445-8.4589-5.0527-14.892-10.247-14.892z" style="fill:#a00;paint-order:stroke markers fill"/>
  <path id="path4799" d="m139.52 133.56c-5.1943 0-9.4725 6.4332-10.247 14.892l-0.12609 2.7611s0.71088 89.609-0.79375 93.882c-2.4581 6.9793-4.7424 22.836-4.7424 22.836-0.0633 0.30485 12.8-1.4075 12.8-1.3229h3.3838c0-44.349 8.4779-134.12 0-133.05zm0.55655 0c-9.5104 32.574-0.1256 88.543 0 133.05h3.3838c0-0.0846 12.863 1.6278 12.8 1.3229 0 0-2.2843-15.856-4.7424-22.836-1.5046-4.2721-0.79375-93.882-0.79375-93.882l-0.12609-2.7611c-0.77445-8.4589-5.0527-14.892-10.247-14.892z" style="fill:#a00;paint-order:stroke markers fill"/>
  <g id="g5171">
   <path id="path4996" d="m31.976 230.78 3.4153 12.484 45.789 2.8577 6.0602-13.837z" style="fill:#727272"/>
   <path id="path5056" d="m180.58 230.78-3.4153 12.484-45.789 2.8577-6.0602-13.837z" style="fill:#727272"/>
   <path id="path4803" d="m105.38 56.586c-0.2956 0-1e-5 -3e-6 -0.67386 0.0739-3.0385 1.6694-3.9123 5.1049-6.1474 10.282 0 0-1.8578 4.9069-1.9921 5.5578s-0.86998 1.6831-2.7068 16.283c-1.8368 14.6-7.3106 53.532-15.716 72.381-10.034 22.502-36.944 42.491-48.456 49.699-1.1221 0.70264-3.2851 1.7134-3.4308 3.0887-0.57394 5.4192-0.55346 15.673-0.55346 15.673s12.985 1.5942 19.513 1.9136c0.68526 0.0335 1.394 0.0648 2.1239 0.0938 9.9851 0.39737 23.918 0.38661 35.624 0.27052-3.24 7.3574-7.8241 18.087-7.4709 19.162 0.85698 2.6074 5.5356 0.37506 8.2326-0.13436 13.524-2.5545 21.45-4.7783 21.554-4.8075 0.10382 0.0292 8.0295 2.253 21.553 4.8075 2.6969 0.50942 7.3761 2.7418 8.2331 0.13436 0.35329-1.0749-4.2318-11.807-7.4719-19.164 12.594 0.12621 27.799 0.13211 37.904-0.36225 6.5277-0.31936 19.513-1.9136 19.513-1.9136s0.0205-10.254-0.55345-15.673c-0.14566-1.3753-2.3087-2.3861-3.4308-3.0887-11.512-7.2086-38.422-27.197-48.456-49.699-8.4053-18.849-13.879-57.781-15.716-72.381-1.8368-14.6-2.5725-15.632-2.7068-16.283-0.13435-0.65089-1.9921-5.5578-1.9921-5.5578-2.2266-5.1569-3.1017-8.5865-6.1123-10.263-0.66404-0.0925-0.37597-0.0925-0.66404-0.0925zm-0.51053 148.88 0.53073 11.343c-0.0338 0.0262-0.062 0.0577-0.0858 0.0935zm0.41183 22.907 0.0336 10.418c1.4e-4 0.0459-0.0169 0.51454-0.0352 1.0371-0.0182-0.5226-0.0353-0.99129-0.0351-1.0371l0.0238-7.2574h4e-3z" style="fill:url(#linearGradient4900);opacity:.979;paint-order:markers fill stroke;stroke-linecap:round;stroke-width:1.1;stroke:#3c3c3c"/>
   <path id="path4889" d="m105.33 77.462-4.6676 1.0955-3.6304 4.1191-1.2533 3.9877 3.0253-0.65731 3.4143-2.5854h6.2235l3.4143 2.5854 3.0253 0.65731-1.2534-3.9877-3.6304-4.1191z" style="stroke-width:.26458px;stroke:#000"/>
   <path id="path4914" d="m96.565 71.562h16.801c-0.66146-3.5719-1.9844-7.4304-3.7042-10.649l-1.3229-2.4474-2.2908-1.787-0.66404-0.0925-0.67385 0.0739-2.4567 2.2025-1.7198 3.0427-2.1167 5.0932z" style="fill:#454545"/>
   <path id="path4923" d="m82.969 231.9c0.13094-31.112 2.8625-74.775 11.083-144.93" style="fill-opacity:.18824;fill:#404040;stroke-width:.965;stroke:#575757"/>
   <path id="path4925" d="m116.74 86.776c5.8845 48.752 9.2031 97.077 10.859 145.12" style="fill-opacity:.18824;fill:#404040;stroke-width:.965;stroke:#575757"/>
   <path id="path4927" d="m92.067 112.44h26.326" style="fill:none;stroke-width:.565;stroke:#545454"/>
   <path id="path4929" d="m118.53 115.88h-26.723" style="fill:none;stroke-width:.565;stroke:#545454"/>
   <path id="path4931" d="m91.67 119.32h27.12" style="fill:none;stroke-width:.565;stroke:#545454"/>
   <path id="path4933" d="m86.134 165.09h38.005" style="fill:none;stroke-width:.565;stroke:#686464"/>
   <path id="path4935" d="m124.48 169.66h-38.502" style="fill:none;stroke-width:.565;stroke:#686464"/>
   <path id="path4937" d="m85.769 174.22h39.015" style="fill:none;stroke-width:.565;stroke:#686464"/>
   <path id="path4939" d="m88.892 137.64 31.882-0.19844" style="fill:none;stroke-width:.565;stroke:#787878"/>
   <path id="path4941" d="m121.83 141.28h-33.536" style="fill:none;stroke-width:.565;stroke:#787878"/>
   <path id="path4943" d="m83.911 203.72h19.269 23.176" style="fill:none;stroke-width:.565;stroke:#696969"/>
   <path id="path4945" d="m126.78 209.98-42.943 0.0935" style="fill:none;stroke-width:.565;stroke:#696969"/>
   <path id="path4947" d="m158.89 220.17a4.2333 4.2333 0 0 1-5.5197 2.1302 4.2333 4.2333 0 0 1-2.2586-5.4684 4.2333 4.2333 0 0 1 5.414-2.3859 4.2333 4.2333 0 0 1 2.5118 5.3568" style="fill-opacity:.97884;fill:#403cff;paint-order:markers fill stroke;stroke-linecap:round;stroke-linejoin:round;stroke-width:.565;stroke:#817e96"/>
   <rect id="rect4949" x="40.473" y="218.27" width="10.848" height="6.35" ry=".39446" style="fill:none;paint-order:markers fill stroke;stroke-linecap:round;stroke-linejoin:round;stroke-width:.165;stroke:#323232"/>
   <rect id="rect4959" x="41.221" y="218.98" width="4.0215" height="2.2449" ry=".29129" style="fill:#de282a;paint-order:markers fill stroke"/>
   <path id="path4978" d="m105.38 56.036c-0.1478 0-0.25346 0.0099-0.30075 0.01913-0.0473 0.0092-0.10478 0.02188-0.43305 0.05788l-0.10904 0.01188-0.0961 0.05271c-1.6393 0.90068-2.6965 2.2935-3.5993 4.0571-0.90274 1.7636-1.6776 3.9169-2.7879 6.4885l-0.0052 0.01138-0.0041 0.01188s-0.46539 1.2288-0.94775 2.5399c-0.24118 0.65557-0.48684 1.3318-0.68161 1.8883-0.19478 0.55645-0.3304 0.93887-0.38706 1.2134-0.03864 0.18718-0.28116 0.72872-0.71572 2.9145s-1.079 6.1036-1.9983 13.411c-1.8351 14.586-7.3457 53.553-15.672 72.226-9.9347 22.279-36.795 42.286-48.246 49.457-0.52685 0.32991-1.3676 0.76722-2.1146 1.3146-0.74698 0.54742-1.4696 1.2251-1.571 2.1823-0.58173 5.4928-0.55656 15.732-0.55656 15.732l0.19379 0.37465 0.28887 0.17002s12.972 1.5952 19.553 1.9172c9.8739 0.48308 24.539 0.48374 36.942 0.36691-1.5539 3.5389-3.3472 7.6753-4.7604 11.18-0.75553 1.8734-1.3991 3.5506-1.8361 4.841-0.21847 0.64521-0.38569 1.1926-0.49041 1.632-0.05236 0.21969-0.08915 0.41182-0.108 0.58756-0.01886 0.17574-0.0367 0.32612 0.0341 0.54157 0.26786 0.81499 0.92505 1.3309 1.6583 1.5131 0.73325 0.18222 1.545 0.11299 2.3895-0.0419 1.689-0.30961 3.548-0.99833 4.8095-1.2366 13.368-2.525 21.138-4.6929 21.451-4.7806 0.31234 0.0875 8.0833 2.2556 21.451 4.7806 1.2615 0.23828 3.1204 0.92701 4.8095 1.2366 0.84458 0.15481 1.6567 0.22403 2.39 0.0419 0.73329-0.18222 1.3904-0.69807 1.6583-1.5131 0.0708-0.21547 0.053-0.36581 0.0341-0.54157-0.0189-0.17575-0.0562-0.36835-0.10852-0.58808-0.10475-0.43944-0.27139-0.98613-0.4899-1.6314-0.43703-1.2906-1.0809-2.9689-1.8366-4.8426-1.4135-3.5048-3.2065-7.6413-4.7604-11.18 12.437 0.11848 27.18 0.12041 37.098-0.36484 6.5814-0.32199 19.553-1.9172 19.553-1.9172l0.48163-0.0589 1e-3 -0.48576s0.0252-10.24-0.55655-15.732c-0.10138-0.95717-0.82397-1.6349-1.571-2.1823-0.74698-0.54743-1.5877-0.98474-2.1146-1.3146-11.451-7.1704-38.311-27.178-48.246-49.457-8.3267-18.673-13.837-57.64-15.672-72.226-0.91935-7.3075-1.5638-11.225-1.9983-13.411s-0.67709-2.7274-0.71572-2.9145c-0.0567-0.2745-0.19228-0.65691-0.38706-1.2134-0.19477-0.55645-0.44043-1.2327-0.68161-1.8883-0.48236-1.3111-0.94775-2.5399-0.94775-2.5399l-4e-3 -0.01188-5e-3 -0.01138c-1.1061-2.5618-1.879-4.7083-2.7771-6.4683-0.89814-1.76-1.9476-3.1523-3.5724-4.0571l-0.0899-0.05013-0.10181-0.01394c-0.32126-0.04475-0.37054-0.05872-0.41754-0.07028-0.0235-0.0058-0.0999-0.02185-0.1571-0.02532-0.0572-0.0035-0.0934-0.0021-0.16536-0.0021zm-0.0827 1.0955c-2e-3 0.0013 9e-3 0.0041 0.0827 0.0041 0.0626 0 0.0838 7.94e-4 0.0858 5.29e-4 0.0396 0.0096 0.19671 0.03618 0.37103 0.06408 1.3486 0.77165 2.2323 1.9175 3.0675 3.5543 0.84692 1.6596 1.6242 3.802 2.7409 6.3898 3e-3 8e-3 0.46197 1.221 0.94052 2.5218 0.24005 0.65252 0.48407 1.3251 0.67541 1.8717 0.19135 0.54666 0.3383 1.0213 0.34881 1.0723 0.0957 0.46371 0.28812 0.76376 0.71417 2.9068 0.42605 2.143 1.0679 6.0414 1.9854 13.334 1.8386 14.614 7.2754 53.511 15.759 72.536 10.134 22.726 37.094 42.695 48.666 49.942 0.59524 0.37273 1.397 0.79225 2.0485 1.2697 0.65147 0.47744 1.0833 0.99264 1.1276 1.4108 0.5423 5.1204 0.54544 14.323 0.54518 15.126-0.81765 0.0997-12.727 1.548-18.985 1.8542-10.078 0.49306-25.282 0.48791-37.872 0.36174l-0.85266-9e-3 0.34364 0.78031c1.6188 3.676 3.5738 8.1956 5.0767 11.922 0.75147 1.8633 1.3903 3.5293 1.8149 4.7832 0.21229 0.62692 0.37095 1.1523 0.46199 1.5343 0.0455 0.19096 0.0736 0.34696 0.0847 0.45009s-0.0122 0.16227 0.0145 0.0811c-0.16062 0.48869-0.40965 0.67195-0.87901 0.78858s-1.1565 0.0847-1.926-0.0563c-1.5389-0.28207-3.3679-0.96444-4.8033-1.2356-13.505-2.551-21.414-4.7705-21.507-4.7966l-0.14883-0.0419-0.14883 0.0419c-0.0921 0.0259-8.0022 2.2456-21.507 4.7966-1.4354 0.27114-3.2645 0.95351-4.8033 1.2356-0.76939 0.14103-1.4562 0.17298-1.9255 0.0563-0.46931-0.11662-0.71839-0.29989-0.87902-0.78858 0.02666 0.0811 0.0034 0.022 0.01447-0.0811 0.01106-0.1031 0.03924-0.25917 0.08475-0.45009 0.09101-0.38188 0.24975-0.90693 0.46199-1.5338 0.42449-1.2536 1.063-2.9196 1.8144-4.7826 1.5027-3.7262 3.4574-8.2452 5.0762-11.921l0.34365-0.78032-0.66559-3.1714c-12.557 0.12454-23.005 0.59473-33.038 0.10387-6.258-0.30616-12.92-0.91263-13.738-1.0123 0.79332-0.50835-6.3149-1.2986-5.5402-7.3412 0.37996-2.763 2.9405-5.0742 3.592-5.5516 0.65148-0.47744 10.472-7.973 11.067-8.3457 11.112-11.082 24.055-17.403 37.46-45.386 9-18.786 9.6175-57.174 11.456-71.788 0.91748-7.2926 1.5594-11.191 1.9854-13.334 0.42605-2.143 0.61846-2.4431 0.71417-2.9068 0.0105-0.05095 0.15747-0.52563 0.34882-1.0723 0.19134-0.54665 0.43535-1.2192 0.67541-1.8717 0.47855-1.3008 0.93749-2.5138 0.94051-2.5218 1.121-2.5976 1.9-4.7463 2.7507-6.4084 0.83757-1.6363 1.7256-2.7793 3.083-3.5481 0.17881-0.02267 0.35217-0.04641 0.38706-0.05323 0.0237-0.0046 9e-3 -0.0045 7e-3 -0.0031zm-0.60565 148.31-0.3886-0.26159 0.45626 13.556 1.0005-1.5074 0.1912-0.14832-0.64748-11.139-0.24805 0.23678zm0.0398 22.931v3e-3l-8e-3 2.6097h-4e-3l-0.0253 7.8057c-2.7e-4 0.0971 4e-3 0.17151 0.0108 0.36018 7e-3 0.18869 0.0152 0.43658 0.0243 0.69764h1.0997c9e-3 -0.26106 0.0177-0.50894 0.0243-0.69764 7e-3 -0.18867 0.0111-0.26306 0.0108-0.36018l-0.0336-10.415v-3e-3z" style="color-rendering:auto;color:#000000;dominant-baseline:auto;fill:#3c3c3c;font-feature-settings:normal;font-variant-alternates:normal;font-variant-caps:normal;font-variant-ligatures:normal;font-variant-numeric:normal;font-variant-position:normal;image-rendering:auto;isolation:auto;mix-blend-mode:normal;opacity:.979;paint-order:markers fill stroke;shape-padding:0;shape-rendering:auto;solid-color:#000000;text-decoration-color:#000000;text-decoration-line:none;text-decoration-style:solid;text-indent:0;text-orientation:mixed;text-transform:none;white-space:normal"/>
   <path id="path4986" d="m105.16 56.183 5.3e-4 1.109c8e-3 0.0011 9e-3 0.0016 0.017 0.0026 1.3574 0.76879 2.2454 1.9118 3.083 3.5481 0.85079 1.6621 1.6298 3.8107 2.7507 6.4084 3e-3 8e-3 0.46196 1.221 0.94051 2.5218 0.24006 0.65252 0.48407 1.3251 0.67541 1.8717 0.19136 0.54666 0.33832 1.0213 0.34882 1.0723 0.0957 0.4637 0.28811 0.76376 0.71417 2.9068 0.42605 2.143 1.0679 6.0414 1.9854 13.334 1.8386 14.614 2.4562 53.001 11.456 71.788 13.406 27.983 26.348 34.304 37.46 45.386 0.59523 0.37272 10.416 7.8683 11.067 8.3458 0.65149 0.47744 3.2121 2.7886 3.592 5.5516 0.7747 6.0425-6.3336 6.8333-5.5402 7.3417-0.81766 0.0997-7.4797 0.70565-13.738 1.0118-10.033 0.49085-20.481 0.0207-33.038-0.10387l-0.66559 3.1719 0.34365 0.78031c1.6188 3.676 3.5735 8.1951 5.0762 11.921 0.75134 1.8631 1.3899 3.529 1.8144 4.7826 0.21224 0.62683 0.37099 1.1519 0.46199 1.5338 0.0455 0.19092 0.0737 0.34699 0.0848 0.4501 0.0115 0.1031-0.0122 0.16223 0.0145 0.0811-0.16061 0.48868-0.4097 0.67144-0.87901 0.78807-0.4693 0.11665-1.1561 0.0852-1.9255-0.0558-1.5388-0.28208-3.3679-0.96443-4.8033-1.2356-13.032-2.4615-20.682-4.5691-21.297-4.7403v0.50022l0.28422 0.71262c1.6114 0.43889 8.7814 2.3369 20.808 4.6085 1.2615 0.23828 3.1205 0.92699 4.8095 1.2366 0.84452 0.15487 1.6563 0.22407 2.3895 0.0419 0.73325-0.18222 1.3904-0.69811 1.6583-1.5131 0.0708-0.21545 0.053-0.36584 0.0341-0.54157-0.0189-0.17574-0.0556-0.36788-0.108-0.58756-0.10471-0.4394-0.27194-0.98674-0.49041-1.632-0.43693-1.2904-1.0805-2.9676-1.8361-4.841-1.4133-3.5044-3.2065-7.6408-4.7604-11.18 12.403 0.11684 27.068 0.11616 36.942-0.36691 6.5814-0.322 19.553-1.9172 19.553-1.9172l0.48163-0.0589 1e-3 -0.48576s0.0252-10.24-0.55655-15.732c-0.10138-0.95719-0.82399-1.6349-1.571-2.1823-0.74697-0.54743-1.5877-0.98474-2.1146-1.3146-11.451-7.1705-38.311-27.178-48.246-49.457-8.3267-18.673-13.837-57.64-15.672-72.226-0.91935-7.3075-1.5638-11.225-1.9983-13.411-0.43455-2.1858-0.67712-2.7274-0.71572-2.9145-0.0567-0.2745-0.19229-0.65691-0.38706-1.2134-0.19477-0.55646-0.44044-1.2327-0.68161-1.8883-0.48236-1.3111-0.94775-2.5399-0.94775-2.5399l-4e-3 -0.01188-5e-3 -0.01138c-1.1103-2.5716-1.8852-4.7249-2.788-6.4885-0.90274-1.7636-1.96-3.1564-3.5993-4.0571l-0.0961-0.05271-0.10903-0.01188c-0.208-0.02281-0.21751-0.02769-0.27441-0.03669zm-0.23151 148.22c-0.20644 4.0795-0.54782 3.2208 0.23151 14.201l0.16123 0.24288-0.18039-12.712-0.26458-0.92904zm0.23151 24.081v11.476h0.1912c9e-3 -0.26106 0.0173-0.50895 0.0243-0.69763s0.0117-0.26309 0.0114-0.36019l-0.0253-7.8057h-4e-3l-8e-3 -2.6097v-3e-3z" style="color-rendering:auto;color:#000000;dominant-baseline:auto;fill:#3c3c3c;font-feature-settings:normal;font-variant-alternates:normal;font-variant-caps:normal;font-variant-ligatures:normal;font-variant-numeric:normal;font-variant-position:normal;image-rendering:auto;isolation:auto;mix-blend-mode:normal;opacity:.979;paint-order:markers fill stroke;shape-padding:0;shape-rendering:auto;solid-color:#000000;text-decoration-color:#000000;text-decoration-line:none;text-decoration-style:solid;text-indent:0;text-orientation:mixed;text-transform:none;white-space:normal"/>
   <path id="path5111" d="m104.77 204.67c-0.38253 0-0.74319 0.17581-1.0586 0.46485-0.31541 0.28903-0.59791 0.69287-0.86524 1.1992-0.53464 1.0127-1.0018 2.4427-1.3945 4.2012-0.78536 3.517-1.2676 8.3492-1.2676 13.688 0 5.3383 0.48222 10.17 1.2676 13.688 0.39268 1.7585 0.85989 3.1865 1.3945 4.1992 0.26733 0.50634 0.54983 0.91018 0.86524 1.1992 0.3154 0.28904 0.67606 0.4668 1.0586 0.4668s0.74319-0.17776 1.0586-0.4668c0.31541-0.28903 0.59987-0.69287 0.86719-1.1992 0.53465-1.0127 0.9999-2.4407 1.3926-4.1992 0.78536-3.517 1.2676-8.3492 1.2676-13.688 0-5.3384-0.48222-10.17-1.2676-13.688-0.39268-1.7585-0.85793-3.1885-1.3926-4.2012-0.26732-0.50634-0.55178-0.91018-0.86719-1.1992-0.3154-0.28904-0.67606-0.46485-1.0586-0.46485z" style="color-rendering:auto;color:#000000;dominant-baseline:auto;fill:#3c3c3c;font-feature-settings:normal;font-variant-alternates:normal;font-variant-caps:normal;font-variant-ligatures:normal;font-variant-numeric:normal;font-variant-position:normal;image-rendering:auto;isolation:auto;mix-blend-mode:normal;paint-order:markers fill stroke;shape-padding:0;shape-rendering:auto;solid-color:#000000;text-decoration-color:#000000;text-decoration-line:none;text-decoration-style:solid;text-indent:0;text-orientation:mixed;text-transform:none;white-space:normal"/>
   <path id="path4994" d="m104.77 205.23c0.2116-1e-5 0.43095 0.094 0.67578 0.31835 0.24483 0.22436 0.50252 0.57615 0.75 1.0449 0.49497 0.93754 0.95578 2.3318 1.3418 4.0605 0.77204 3.4574 1.2539 8.2602 1.2539 13.564 0 5.3042-0.48187 10.107-1.2539 13.564-0.38602 1.7287-0.84683 3.121-1.3418 4.0586-0.24748 0.46878-0.50517 0.82252-0.75 1.0469s-0.46418 0.31836-0.67578 0.31836-0.43095-0.094-0.67578-0.31836-0.50251-0.5781-0.75-1.0469c-0.49497-0.93754-0.95578-2.3299-1.3418-4.0586-0.77203-3.4574-1.252-8.2602-1.252-13.564 0-5.3043 0.47992-10.107 1.252-13.564 0.38602-1.7287 0.84683-3.123 1.3418-4.0605 0.24749-0.46878 0.50517-0.82057 0.75-1.0449 0.24483-0.22435 0.46418-0.31836 0.67578-0.31835z" style="color-rendering:auto;color:#000000;dominant-baseline:auto;fill:#3c3c3c;font-feature-settings:normal;font-variant-alternates:normal;font-variant-caps:normal;font-variant-ligatures:normal;font-variant-numeric:normal;font-variant-position:normal;image-rendering:auto;isolation:auto;mix-blend-mode:normal;paint-order:markers fill stroke;shape-padding:0;shape-rendering:auto;solid-color:#000000;text-decoration-color:#000000;text-decoration-line:none;text-decoration-style:solid;text-indent:0;text-orientation:mixed;text-transform:none;white-space:normal"/>
  </g>
 </g>
</svg>
